<svg width="24" height="24" viewBox="0 0 24 24" fill="none" xmlns="http://www.w3.org/2000/svg">
<path d="M7.68141 1.43994C4.241 1.43994 1.44141 4.23953 1.44141 7.67994V16.3199C1.44141 19.7603 4.241 22.5599 7.68141 22.5599H16.3214C19.7618 22.5599 22.5614 19.7603 22.5614 16.3199V7.67994C22.5614 4.23953 19.7618 1.43994 16.3214 1.43994H7.68141ZM7.68141 2.39994H16.3214C19.2429 2.39994 21.6014 4.75843 21.6014 7.67994V16.3199C21.6014 19.2415 19.2429 21.5999 16.3214 21.5999H7.68141C4.75989 21.5999 2.40141 19.2415 2.40141 16.3199V7.67994C2.40141 4.75843 4.75989 2.39994 7.68141 2.39994ZM17.7614 5.27994C17.5068 5.27994 17.2626 5.38108 17.0826 5.56112C16.9025 5.74115 16.8014 5.98533 16.8014 6.23994C16.8014 6.49455 16.9025 6.73873 17.0826 6.91876C17.2626 7.0988 17.5068 7.19994 17.7614 7.19994C18.016 7.19994 18.2602 7.0988 18.4402 6.91876C18.6203 6.73873 18.7214 6.49455 18.7214 6.23994C18.7214 5.98533 18.6203 5.74115 18.4402 5.56112C18.2602 5.38108 18.016 5.27994 17.7614 5.27994ZM12.0014 6.71994C9.09103 6.71994 6.72141 9.08956 6.72141 11.9999C6.72141 14.9103 9.09103 17.2799 12.0014 17.2799C14.9118 17.2799 17.2814 14.9103 17.2814 11.9999C17.2814 9.08956 14.9118 6.71994 12.0014 6.71994ZM12.0014 7.67994C14.393 7.67994 16.3214 9.60839 16.3214 11.9999C16.3214 14.3915 14.393 16.3199 12.0014 16.3199C9.60985 16.3199 7.68141 14.3915 7.68141 11.9999C7.68141 9.60839 9.60985 7.67994 12.0014 7.67994Z" fill="#EDEDED"/>
</svg>
