<svg width="24" height="24" viewBox="0 0 24 24" fill="none" xmlns="http://www.w3.org/2000/svg">
<path d="M21.3018 2.87348C21.068 2.88374 20.8404 2.9488 20.6352 3.03098C20.4321 3.11261 19.2627 3.61173 17.5358 4.35005C15.8089 5.08836 13.5642 6.04981 11.3389 7.00317C6.8885 8.9099 2.51519 10.786 2.51519 10.786L2.54706 10.7738C2.54706 10.7738 2.28311 10.862 2.0155 11.0485C1.8817 11.1417 1.73774 11.2621 1.61988 11.4375C1.50201 11.613 1.41584 11.8617 1.44831 12.1247C1.56237 13.0486 2.51988 13.3107 2.51988 13.3107L2.52363 13.3125L6.79675 14.775C6.9057 15.1385 8.09281 19.1006 8.35394 19.9397C8.49816 20.4036 8.63314 20.6712 8.77394 20.8538C8.8444 20.9451 8.91824 21.0158 8.99988 21.0675C9.03231 21.0881 9.06643 21.1035 9.10019 21.1172H9.10206C9.10621 21.1191 9.11011 21.1192 9.11425 21.121L9.103 21.1182C9.11084 21.1213 9.11859 21.1267 9.12644 21.1294C9.14167 21.1348 9.15101 21.1346 9.1705 21.1388C9.65988 21.3097 10.0649 20.9925 10.0649 20.9925L10.0818 20.9794L12.7068 18.5447L16.9668 21.8663L17.0202 21.8907C17.7658 22.2217 18.4402 22.037 18.8136 21.7332C19.1871 21.4293 19.3339 21.0375 19.3339 21.0375L19.3499 20.9963L22.4802 4.68098C22.5603 4.31597 22.5717 4.00046 22.4961 3.71536C22.4206 3.43025 22.237 3.18241 22.0068 3.04504C21.7765 2.90768 21.5355 2.86323 21.3018 2.87348ZM21.3271 3.84942C21.422 3.84502 21.4924 3.85588 21.5146 3.86911C21.5367 3.88234 21.5467 3.8806 21.568 3.96098C21.5893 4.04137 21.6008 4.21068 21.5427 4.47567L21.5408 4.4813L18.4283 20.7019C18.4209 20.7183 18.3561 20.8683 18.208 20.9888C18.0569 21.1117 17.8889 21.2077 17.443 21.0207L12.7846 17.3879L12.6533 17.2847L12.6505 17.2875L11.2574 16.2422L19.0864 7.0313C19.1466 6.9607 19.185 6.87419 19.1971 6.78223C19.2091 6.69026 19.1942 6.59678 19.1543 6.51309C19.1143 6.42939 19.0509 6.35906 18.9719 6.3106C18.8928 6.26215 18.8013 6.23764 18.7086 6.24005C18.618 6.2424 18.5299 6.27035 18.4546 6.32067L7.12581 13.8732L2.84613 12.4079C2.84613 12.4079 2.42115 12.1714 2.40081 12.0066C2.39969 11.9975 2.39467 12.0057 2.41675 11.9729C2.43883 11.94 2.49434 11.8845 2.56394 11.836C2.70313 11.739 2.86206 11.6804 2.86206 11.6804L2.878 11.6747L2.89394 11.6682C2.89394 11.6682 7.26748 9.79199 11.7177 7.88536C13.9428 6.93204 16.1872 5.9713 17.9136 5.23317C19.6396 4.49523 20.8868 3.96406 20.9924 3.92161C21.1126 3.87347 21.2321 3.85382 21.3271 3.84942ZM16.1352 9.02067L10.198 16.006L10.1952 16.0088C10.1859 16.02 10.1772 16.0315 10.1689 16.0435C10.1595 16.0565 10.1508 16.0699 10.1427 16.0838C10.1093 16.1404 10.088 16.2033 10.0799 16.2685C10.0799 16.2697 10.0799 16.271 10.0799 16.2722L9.30644 19.7504C9.29358 19.7128 9.28458 19.699 9.27081 19.6547V19.6538C9.02516 18.8645 7.90515 15.1278 7.75019 14.611L16.1352 9.02067ZM10.8683 17.1507L11.9352 17.9513L10.3677 19.4044L10.8683 17.1507Z" fill="#EDEDED"/>
</svg>
